<svg width="22" height="15" viewBox="0 0 22 15" fill="none" xmlns="http://www.w3.org/2000/svg">
<path d="M14.6667 8.45833L19.4545 11.7953C19.5235 11.8433 19.6037 11.8708 19.6865 11.875C19.7693 11.8791 19.8516 11.8597 19.9247 11.8188C19.9978 11.7779 20.0589 11.717 20.1015 11.6426C20.1441 11.5683 20.1667 11.4833 20.1667 11.3966V3.54208C20.1667 3.45777 20.1455 3.37495 20.1051 3.30197C20.0647 3.22899 20.0066 3.16845 19.9367 3.12645C19.8668 3.08446 19.7875 3.06249 19.7068 3.06278C19.6262 3.06306 19.547 3.08559 19.4774 3.12808L14.6667 6.0625M3.66671 1.75H12.8334C13.8459 1.75 14.6667 2.60812 14.6667 3.66667V11.3333C14.6667 12.3919 13.8459 13.25 12.8334 13.25H3.66671C2.65419 13.25 1.83337 12.3919 1.83337 11.3333V3.66667C1.83337 2.60812 2.65419 1.75 3.66671 1.75Z" stroke="#FA5B31" stroke-width="2" stroke-linecap="round" stroke-linejoin="round"/>
</svg>
