<svg width="22" height="21" viewBox="0 0 22 21" fill="none" xmlns="http://www.w3.org/2000/svg">
<path d="M20.1667 9.61528V10.5319C20.1575 12.3821 19.5885 14.1861 18.5348 15.7068C17.4811 17.2276 15.9918 18.3939 14.2628 19.0524C12.5338 19.7109 10.646 19.8308 8.8476 19.3964C7.04918 18.9619 5.42433 17.9934 4.18664 16.6182C2.94895 15.243 2.15637 13.5254 1.9131 11.6914C1.66982 9.85726 1.98723 7.99249 2.8236 6.34217C3.65997 4.69185 4.97615 3.33325 6.59911 2.44496C8.22207 1.55668 10.0758 1.18029 11.9167 1.36528M7.33339 12.3653C7.33339 12.3653 8.70839 14.1986 11.0001 14.1986C13.2917 14.1986 14.6667 12.3653 14.6667 12.3653M8.25006 7.78195H8.25922M13.7501 7.78195H13.7592M14.6667 4.11528H20.1667M17.4167 1.36528V6.86528" stroke="#FA5B31" stroke-width="2" stroke-linecap="round" stroke-linejoin="round"/>
</svg>
