<svg width="21" height="21" viewBox="0 0 21 21" fill="none" xmlns="http://www.w3.org/2000/svg">
<path d="M17.5 1.7499V5.2499M19.25 3.4999H15.75M9.6399 2.46215C9.67739 2.26143 9.7839 2.08014 9.94098 1.94968C10.0981 1.81922 10.2958 1.7478 10.5 1.7478C10.7042 1.7478 10.902 1.81922 11.0591 1.94968C11.2161 2.08014 11.3227 2.26143 11.3601 2.46215L12.2798 7.3254C12.3451 7.67115 12.5131 7.98919 12.7619 8.238C13.0107 8.48681 13.3288 8.65483 13.6745 8.72015L18.5378 9.63977C18.7385 9.67726 18.9198 9.78377 19.0502 9.94086C19.1807 10.0979 19.2521 10.2957 19.2521 10.4999C19.2521 10.7041 19.1807 10.9019 19.0502 11.0589C18.9198 11.216 18.7385 11.3225 18.5378 11.36L13.6745 12.2796C13.3288 12.345 13.0107 12.513 12.7619 12.7618C12.5131 13.0106 12.3451 13.3286 12.2798 13.6744L11.3601 18.5376C11.3227 18.7384 11.2161 18.9197 11.0591 19.0501C10.902 19.1806 10.7042 19.252 10.5 19.252C10.2958 19.252 10.0981 19.1806 9.94098 19.0501C9.7839 18.9197 9.67739 18.7384 9.6399 18.5376L8.72027 13.6744C8.65496 13.3286 8.48693 13.0106 8.23812 12.7618C7.98931 12.513 7.67127 12.345 7.32552 12.2796L2.46227 11.36C2.26155 11.3225 2.08026 11.216 1.9498 11.0589C1.81934 10.9019 1.74792 10.7041 1.74792 10.4999C1.74792 10.2957 1.81934 10.0979 1.9498 9.94086C2.08026 9.78377 2.26155 9.67726 2.46227 9.63977L7.32552 8.72015C7.67127 8.65483 7.98931 8.48681 8.23812 8.238C8.48693 7.98919 8.65496 7.67115 8.72027 7.3254L9.6399 2.46215ZM5.25002 17.4999C5.25002 18.4664 4.46652 19.2499 3.50002 19.2499C2.53352 19.2499 1.75002 18.4664 1.75002 17.4999C1.75002 16.5334 2.53352 15.7499 3.50002 15.7499C4.46652 15.7499 5.25002 16.5334 5.25002 17.4999Z" stroke="#FA5B31" stroke-width="2" stroke-linecap="round" stroke-linejoin="round"/>
</svg>
