<svg width="23" height="21" viewBox="0 0 23 21" fill="none" xmlns="http://www.w3.org/2000/svg">
<path d="M10 12.5832H12C12.5304 12.5832 13.0391 12.3638 13.4142 11.9731C13.7893 11.5824 14 11.0524 14 10.4999C14 9.94738 13.7893 9.41748 13.4142 9.02678C13.0391 8.63607 12.5304 8.41658 12 8.41658H9C8.4 8.41658 7.9 8.62491 7.6 9.04158L2 14.6666M13.45 11.9478L18.5 7.05825C19.196 6.33325 20 5.13533 20 3.9895C20.0001 3.40966 19.8313 2.84343 19.5159 2.36566C19.2005 1.88789 18.7533 1.52108 18.2335 1.31371C17.7136 1.10635 17.1456 1.0682 16.6045 1.2043C16.0634 1.3404 15.5747 1.64434 15.203 2.07596C15.1772 2.10519 15.1458 2.12852 15.1108 2.14447C15.0759 2.16043 15.0382 2.16867 15 2.16867C14.9619 2.16867 14.9241 2.16043 14.8892 2.14447C14.8542 2.12852 14.8228 2.10519 14.797 2.07596C14.4253 1.64434 13.9366 1.3404 13.3955 1.2043C12.8544 1.0682 12.2864 1.10635 11.7665 1.31371C11.2467 1.52108 10.7995 1.88789 10.4841 2.36566C10.1687 2.84343 9.99988 3.40966 10 3.9895C10 5.2395 10.802 6.33116 11.5 7.05825L15 10.4478M1 13.6249L7 19.8749M6 18.8332L7.6 17.3749C7.9 16.9582 8.4 16.7499 9 16.7499H13C14.1 16.7499 15.1 16.3332 15.8 15.4999L20.4 10.9166C20.7859 10.5367 21.0111 10.0127 21.0261 9.45988C21.0411 8.90704 20.8447 8.37063 20.48 7.96866C20.1153 7.56669 19.6123 7.33209 19.0816 7.31646C18.5508 7.30084 18.0359 7.50546 17.65 7.88533" stroke="#FA5B31" stroke-width="2" stroke-linecap="round" stroke-linejoin="round"/>
</svg>
